<?xml version="1.0" encoding="UTF-8"?>
<svg xmlns="http://www.w3.org/2000/svg" xmlns:xlink="http://www.w3.org/1999/xlink" viewBox="0 0 60 60" width="60px" height="60px">
<g id="surface137235452">
<path style=" stroke:none;fill-rule:nonzero;fill:rgb(100%,100%,100%);fill-opacity:1;" d="M 54 14 C 54.722656 13.988281 55.390625 14.367188 55.753906 14.992188 C 56.121094 15.613281 56.121094 16.386719 55.753906 17.007812 C 55.390625 17.632812 54.722656 18.011719 54 18 L 6 18 C 5.277344 18.011719 4.609375 17.632812 4.246094 17.007812 C 3.878906 16.386719 3.878906 15.613281 4.246094 14.992188 C 4.609375 14.367188 5.277344 13.988281 6 14 Z M 54 28 C 54.722656 27.988281 55.390625 28.367188 55.753906 28.992188 C 56.101562 29.582031 56.117188 30.300781 55.8125 30.90625 C 52.988281 29.066406 49.621094 28 46 28 C 41.710938 28 37.777344 29.5 34.683594 32 L 6 32 C 5.277344 32.011719 4.609375 31.632812 4.246094 31.007812 C 3.878906 30.386719 3.878906 29.613281 4.246094 28.992188 C 4.609375 28.367188 5.277344 27.988281 6 28 Z M 6 46 C 5.277344 46.011719 4.609375 45.632812 4.246094 45.007812 C 3.878906 44.386719 3.878906 43.613281 4.246094 42.992188 C 4.609375 42.367188 5.277344 41.988281 6 42 L 28.445312 42 C 28.152344 43.285156 28 44.625 28 46 Z M 6 46 "/>
<path style=" stroke:none;fill-rule:nonzero;fill:rgb(80.000001%,80.000001%,80.000001%);fill-opacity:1;" d="M 46 32 C 38.269531 32 32 38.269531 32 46 C 32 53.730469 38.269531 60 46 60 C 53.730469 60 60 53.730469 60 46 C 60 38.269531 53.730469 32 46 32 Z M 52 48 L 48 48 L 48 52 C 48 53.105469 47.105469 54 46 54 C 44.894531 54 44 53.105469 44 52 L 44 48 L 40 48 C 38.894531 48 38 47.105469 38 46 C 38 44.894531 38.894531 44 40 44 L 44 44 L 44 40 C 44 38.894531 44.894531 38 46 38 C 47.105469 38 48 38.894531 48 40 L 48 44 L 52 44 C 53.105469 44 54 44.894531 54 46 C 54 47.105469 53.105469 48 52 48 Z M 52 48 "/>
</g>
</svg>
